# xmcd
#
# Track frame offsets: 
#        150
#        24058
#        39413
#        54340
#        65260
#        93325
#        112053
#        130758
#        144925
#        168388
#        191125
#
# Disc length: 3069 seconds
#
# Revision: 0
# Processed by: cddbd v1.5.2PL0 Copyright (c) Steve Scherf et al.
# Submitted via: ExactAudioCopy v1.0b2
#
DISCID=8a0bfb0b
DTITLE=Grateful Dead - American Beauty
DYEAR=1970
DGENRE=Rock
TTITLE0=Box Of Rain
TTITLE1=Friend Of The Devil
TTITLE2=Sugar Magnolia
TTITLE3=Operator
TTITLE4=Candyman
TTITLE5=Ripple
TTITLE6=Brokedown Palace
TTITLE7=Till The Morning Comes
TTITLE8=Attics Of My Life
TTITLE9=Truckin
TTITLE10=Friend Of The Devil (Live)
EXTD=
EXTT0=
EXTT1=
EXTT2=
EXTT3=
EXTT4=
EXTT5=
EXTT6=
EXTT7=
EXTT8=
EXTT9=
EXTT10=
PLAYORDER=
